<?xml version="1.0" encoding="utf-8"?>
<!-- Generator: Adobe Illustrator 25.3.1, SVG Export Plug-In . SVG Version: 6.00 Build 0)  -->
<svg version="1.1" id="Layer_1" xmlns="http://www.w3.org/2000/svg" xmlns:xlink="http://www.w3.org/1999/xlink" x="0px" y="0px"
	 viewBox="0 0 48 48" style="enable-background:new 0 0 48 48;" xml:space="preserve">
<style type="text/css">
	.st0{fill:#07372C;}
</style>
<g id="Oval">
	<path class="st0" d="M24,48C10.8,48,0,37.2,0,24S10.8,0,24,0s24,10.8,24,24S37.2,48,24,48z M24,2C11.9,2,2,11.9,2,24s9.9,22,22,22
		s22-9.9,22-22S36.1,2,24,2z"/>
</g>
<g transform="translate(16.000000, 16.000000)">
	<path id="Path" class="st0" d="M15,12.5L15,12.5c-0.6,0-1-0.4-1-1l0,0V3.4L1.7,15.7l0,0c-0.4,0.4-1,0.4-1.4,0c-0.4-0.4-0.4-1,0-1.4
		c0,0,0,0,0,0L12.6,2H4.5l0,0c-0.6,0-1-0.4-1-1c0-0.6,0.4-1,1-1H15l0,0c0.6,0,1,0.4,1,1v10.5l0,0C16,12,15.6,12.5,15,12.5L15,12.5z"
		/>
</g>
</svg>
