<?xml version="1.0" encoding="utf-8"?>
<!-- Generator: Adobe Illustrator 25.3.1, SVG Export Plug-In . SVG Version: 6.00 Build 0)  -->
<svg version="1.1" id="Layer_1" xmlns="http://www.w3.org/2000/svg" xmlns:xlink="http://www.w3.org/1999/xlink" x="0px" y="0px"
	 viewBox="0 0 34 34" style="enable-background:new 0 0 34 34;" xml:space="preserve">
<style type="text/css">
	.st0{fill:#07372C;}
</style>
<g id="Page-1">
	<g id="TierraPura_x2F_TierraPura-02" transform="translate(-127.000000, -3961.000000)">
		<g id="Group-11" transform="translate(120.000000, 3950.000000)">
			<g id="Group-9" transform="translate(0.000000, 4.000000)">
				<g id="Chat" transform="translate(7.000000, 7.000000)">
					<g id="Path">
						<path class="st0" d="M5.8,33.9H3.9l1-1.7c0.6-1.1,1.1-2,1.3-2.9l0.1-0.3c0.2-0.9,0-1.2-0.2-1.3c-3.9-2.9-6.1-7.3-6.2-12
							c0-4.2,1.8-8.1,5-11C8.2,1.6,12.5,0,17,0c4.5,0,8.8,1.6,12,4.6c3.2,2.9,5,6.9,5,11c0,4.1-1.7,8-4.9,10.9
							c-3.1,2.9-7.3,4.6-11.8,4.7c-1.2,0-2.2-0.1-3.1-0.2l-0.6-0.1c-0.4-0.1-0.9,0-1.3,0.3C10.4,32.6,8.2,33.5,5.8,33.9L5.8,33.9z
							 M17,2C13,2,9.2,3.4,6.3,6C3.5,8.6,2,12,2,15.6c0,4.1,2,7.9,5.5,10.5l0.1,0.1C8.4,27,8.6,28,8.3,29.4l-0.1,0.4
							c-0.2,0.5-0.4,1-0.6,1.5c1.3-0.4,2.5-1.1,3.6-1.9c0.9-0.6,1.8-0.8,2.8-0.6l0.6,0.1c0.8,0.1,1.7,0.2,2.8,0.2
							c3.9-0.1,7.7-1.5,10.4-4.1c2.7-2.6,4.2-5.9,4.2-9.4c0-3.6-1.5-7-4.3-9.5C24.8,3.4,21,2,17,2z"/>
					</g>
				</g>
			</g>
		</g>
	</g>
</g>
</svg>
