<?xml version="1.0" encoding="utf-8"?>
<!-- Generator: Adobe Illustrator 25.3.1, SVG Export Plug-In . SVG Version: 6.00 Build 0)  -->
<svg version="1.1" id="Layer_1" xmlns="http://www.w3.org/2000/svg" xmlns:xlink="http://www.w3.org/1999/xlink" x="0px" y="0px"
	 viewBox="0 0 48 48" style="enable-background:new 0 0 48 48;" xml:space="preserve">
<style type="text/css">
	.st0{fill:#07372C;}
</style>
<g id="Page-1">
	<g id="TierraPura_x2F_TierraPura-02" transform="translate(-848.000000, -2439.000000)">
		<g id="Group-2" transform="translate(808.000000, 2391.000000)">
			<g id="Group-4" transform="translate(40.000000, 32.000000)">
				<g id="Group" transform="translate(0.000000, 16.000000)">
					<g id="Oval">
						<path class="st0" d="M24,48C10.8,48,0,37.2,0,24S10.8,0,24,0s24,10.8,24,24S37.2,48,24,48z M24,2C11.9,2,2,11.9,2,24
							s9.9,22,22,22s22-9.9,22-22S36.1,2,24,2z"/>
					</g>
					<g id="Oval-Copy">
						<path class="st0" d="M24,36c-6.6,0-12-5.4-12-12c0-6.6,5.4-12,12-12c6.6,0,12,5.4,12,12C36,30.6,30.6,36,24,36z M24,14
							c-5.5,0-10,4.5-10,10c0,5.5,4.5,10,10,10c5.5,0,10-4.5,10-10C34,18.5,29.5,14,24,14z"/>
					</g>
				</g>
			</g>
		</g>
	</g>
</g>
</svg>
