<?xml version="1.0" encoding="utf-8"?>
<!-- Generator: Adobe Illustrator 25.3.1, SVG Export Plug-In . SVG Version: 6.00 Build 0)  -->
<svg version="1.1" id="Layer_1" xmlns="http://www.w3.org/2000/svg" xmlns:xlink="http://www.w3.org/1999/xlink" x="0px" y="0px"
	 viewBox="0 0 27 17" style="enable-background:new 0 0 27 17;" xml:space="preserve">
<style type="text/css">
	.st0{fill:#3A5147;}
</style>
<g id="Page-1">
	<g id="TierraPura_x2F_TierraPura-mobile-02" transform="translate(-23.000000, -36.000000)">
		<g id="Group-4" transform="translate(24.450035, 29.000000)">
			<g id="Group" transform="translate(0.000000, 8.094969)">
				<g id="Path">
					<path class="st0" d="M24,1.1H0c-0.3,0-0.6-0.3-0.6-0.6S-0.3-0.1,0-0.1h24c0.3,0,0.6,0.3,0.6,0.6S24.3,1.1,24,1.1z"/>
				</g>
				<g id="Path-Copy">
					<path class="st0" d="M24,8.1H0c-0.3,0-0.6-0.3-0.6-0.6S-0.3,6.9,0,6.9h24c0.3,0,0.6,0.3,0.6,0.6S24.3,8.1,24,8.1z"/>
				</g>
				<g id="Path-Copy-2">
					<path class="st0" d="M14,15.1H0c-0.3,0-0.6-0.3-0.6-0.6s0.3-0.6,0.6-0.6h14c0.3,0,0.6,0.3,0.6,0.6S14.3,15.1,14,15.1z"/>
				</g>
			</g>
		</g>
	</g>
</g>
</svg>
