<?xml version="1.0" encoding="UTF-8"?>
<svg width="16px" height="21px" viewBox="0 0 16 21" version="1.1" xmlns="http://www.w3.org/2000/svg" xmlns:xlink="http://www.w3.org/1999/xlink">
    <title>element/icon/48/1</title>
    <g id="Symbols" stroke="none" stroke-width="1" fill="none" fill-rule="evenodd">
        <g id="element/project/1-copy-5" transform="translate(-68.000000, -49.000000)" stroke="#07372C">
            <g id="element/project/1" transform="translate(0.000000, -400.000000)">
                <g id="Group" transform="translate(64.000000, 448.000000)">
                    <g id="location" transform="translate(4.500000, 1.499999)">
                        <path d="M7.5,0.5 C9.43296027,0.5 11.1828842,1.28358512 12.4496061,2.55030694 C13.7164435,3.8171444 14.5,5.56721072 14.5,7.5 C14.5,8.85262588 13.2241365,11.4959303 11.7587659,13.9870596 C10.0914829,16.8214397 8.13580237,19.7534821 7.49729551,19.7500032 C6.8545579,19.7534798 4.90134002,16.8374826 3.23715633,14.0083713 C1.77302667,11.5193516 0.5,8.87184972 0.5,7.5 C0.5,5.56721038 1.28355605,3.81714376 2.55039357,2.55030624 C3.81711501,1.2835848 5.56703875,0.5 7.5,0.5 Z M7.49999858,4.74999802 C6.74054038,4.74999802 6.05304728,5.05778019 5.55541428,5.55541309 C5.05778124,6.05304603 4.74999901,6.74053906 4.74999901,7.49999717 C4.74999901,8.25945526 5.05778127,8.9469488 5.55541437,9.44458219 C6.0530474,9.94221549 6.74054047,10.249998 7.49999858,10.249998 C8.25945669,10.249998 8.94695002,9.94221548 9.44458327,9.44458214 C9.94221657,8.94694874 10.249999,8.25945522 10.249999,7.49999717 C10.249999,6.7405391 9.9422166,6.05304609 9.44458336,5.55541314 C8.94695014,5.0577802 8.25945678,4.74999802 7.49999858,4.74999802 Z"></path>
                    </g>
                </g>
            </g>
        </g>
    </g>
</svg>