<?xml version="1.0" encoding="utf-8"?>
<!-- Generator: Adobe Illustrator 25.3.1, SVG Export Plug-In . SVG Version: 6.00 Build 0)  -->
<svg version="1.1" id="Capa_1" xmlns="http://www.w3.org/2000/svg" xmlns:xlink="http://www.w3.org/1999/xlink" x="0px" y="0px"
	 viewBox="0 0 1508.8 590.1" style="enable-background:new 0 0 1508.8 590.1;" xml:space="preserve">
<style type="text/css">
	.st0{opacity:4.000000e-02;enable-background:new    ;}
	.st1{fill:#FFFFFF;}
</style>
<path class="st0" d="M1258.3,0c-138,0-250.5,112-250.5,249.8c0,138.5,112.1,251.2,249.8,251.2c138.5,0,251.2-112.4,251.2-250.5
	C1508.7,112.2,1396.6,0.1,1258.3,0z M1257.7,381c-71.5,0-129.7-58.7-129.7-131.2c0.4-72,59.2-130,131.2-129.6s130,59.2,129.6,131.2
	C1388.3,323.4,1329.6,381.4,1257.7,381z"/>
<path class="st1" d="M1257.5,380.9c-71.5,0-129.7-58.7-129.7-131.2c0.4-72,59.2-130,131.2-129.6s130,59.2,129.6,131.2
	C1388.2,323.3,1329.5,381.3,1257.5,380.9z"/>
<path d="M1257.5,395.2c-79.4,0-144-65.2-144-145.5c0.4-79.9,65.5-144.4,145.5-144c79.9,0.4,144.4,65.5,144,145.5
	C1402.6,331.2,1337.5,395.6,1257.5,395.2C1257.5,395.2,1257.5,395.2,1257.5,395.2L1257.5,395.2z M1258.2,134.2
	c-64-0.1-116,51.6-116.2,115.5c0,64.5,51.8,117,115.6,117c64.2,0.2,116.4-51.7,116.6-115.9C1374.3,186.7,1322.4,134.5,1258.2,134.2
	L1258.2,134.2z"/>
<path d="M1257.9,328.1c-20,0-39.3-7.9-53.6-21.9c-5.6-5.5-5.7-14.5-0.2-20.2c5.5-5.6,14.5-5.7,20.1-0.3c9,8.9,21.1,13.8,33.7,13.8
	c12.8,0,25.1-5,34.3-13.9c5.6-5.6,14.6-5.6,20.2,0s5.6,14.6,0,20.2c-0.1,0.1-0.3,0.3-0.4,0.4
	C1297.5,320.3,1278.1,328.1,1257.9,328.1z"/>
<path d="M273.5,444c0.8-11.3,5.5-21.9,13.3-30c4.4-4.4,9.4-8,15-10.7c6.4-3,13.4-4.4,20.4-4.3c7.3-0.1,14.6,1.2,21.4,4.1
	c5.7,2.3,10.8,5.8,15,10.2c3.9,4.1,6.8,9,8.7,14.3c1.9,5.3,3,10.8,3.3,16.4H273.5z M400.6,380.6c-18.8-21-45.4-31.4-79.1-31.4
	c-13.9,0-27.7,2.9-40.4,8.6c-12.9,5.6-24.5,13.8-34.2,24c-10.3,11-18.3,23.8-23.7,37.8c-6.1,15.7-9.1,32.5-8.8,49.4
	c-0.3,17.5,2.8,35,9,51.4c5.5,14.3,13.8,27.4,24.5,38.5c10.1,10.4,22.3,18.5,35.8,23.8c13.7,5.5,28.3,8.2,43,8.1
	c12.4,0.1,24.8-1.8,36.6-5.7c10.4-3.5,20.2-8.7,29-15.4c8.3-6.4,15.4-14.1,21-22.8c5.7-8.6,9.9-18.1,12.6-28l-49.2-15.2
	c-3.3,9.7-9.2,18.4-17.1,24.9c-7.8,6.4-18.8,9.8-32.5,9.8c-7.2,0-14.3-1.4-21-4.1c-6.3-2.5-12.1-6.2-17.1-10.9
	c-4.9-4.7-8.9-10.3-11.8-16.4c-3.1-6.5-4.8-13.5-5-20.7h155.8c0-0.7,0.2-2.8,0.5-6.6s0.5-7.9,0.5-12.4
	C428.8,430.5,419.6,401.5,400.6,380.6L400.6,380.6z"/>
<path d="M175.3,471.8c-12-12.6-29.7-21.4-53.4-25.9h-0.2L88,438.3c-5.6-1.1-10.8-3.3-15.4-6.6c-3.7-3.3-5.7-8.1-5.5-13.1
	c0-6.2,3.3-12,8.5-15.2c6.2-4.2,13.5-6.4,21-6.2c5.7-0.1,11.4,0.8,16.9,2.6c4.3,1.6,8.3,4,11.6,7.1c2.9,2.7,5.3,5.9,6.9,9.5
	c1.3,3.3,2.3,6.7,3,10.2l2.4-0.5l53-11.4c-1-7.2-3.2-14.2-6.4-20.7c-4-8.2-9.6-15.5-16.4-21.6c-8.3-7.4-18-13.1-28.5-16.9
	c-13.8-4.8-28.4-7.1-43-6.7c-12.2-0.2-24.4,1.9-35.9,6c-10.3,3.6-19.8,9-28.3,15.9c-7.9,6.4-14.3,14.4-18.9,23.4
	c-4.5,9-6.9,18.9-6.9,29C6,439,11.8,454.1,22.3,465.6c10.7,12.1,27.8,20.7,51.3,25.7h0.5l30.6,7.1c10.2,2.6,15.9,4.8,19.5,8.3
	c3.6,3.6,5.6,8.4,5.7,13.5c0,5.9-2.7,11.4-7.3,15c-5,4.3-12.8,6.4-23,6.4c-14,0-24.5-3.6-31.3-10.2C62,525,58,516.8,56.7,508
	l-2.4,0.5L0,519.8c1,7.7,3.3,15.1,6.6,22.1c4.2,8.7,10.1,16.5,17.3,22.8c8.9,7.7,19.1,13.8,30.1,18c12.4,5,27.5,7.4,45.8,7.4
	c13.9,0.3,27.7-1.9,40.8-6.4c10.8-3.8,20.7-9.6,29.2-17.1c14.6-13.1,23-31.7,23-51.3C193.1,499,186.7,483.4,175.3,471.8z"/>
<path d="M866.7,471.8c-12-12.6-29.7-21.4-53.4-25.9H813l-33.7-7.6c-5.6-1.1-10.8-3.3-15.4-6.6c-3.7-3.3-5.7-8.1-5.5-13.1
	c0-6.2,3.3-12,8.6-15.2c6.2-4.2,13.5-6.4,21-6.2c5.7-0.1,11.4,0.8,16.9,2.6c4.3,1.6,8.3,4,11.6,7.1c2.9,2.7,5.3,5.9,6.9,9.5
	c1.3,3.3,2.3,6.7,3,10.2l2.4-0.5l52.9-11.4c-1-7.2-3.2-14.2-6.4-20.7c-4-8.2-9.6-15.5-16.4-21.6c-8.3-7.4-18-13.1-28.5-16.9
	c-13.8-4.8-28.4-7.1-43.1-6.7c-12.3-0.2-24.5,1.9-36,6c-10.3,3.6-19.8,9-28.3,15.9c-7.8,6.4-14.2,14.4-18.8,23.5
	c-4.5,9-6.9,18.9-6.9,29c-0.1,15.6,5.6,30.7,16.1,42.3c10.7,12.1,27.8,20.7,51.3,25.7h0.5l30.6,7.1c10.2,2.6,15.9,4.8,19.5,8.3
	c3.6,3.6,5.6,8.4,5.7,13.5c0,5.9-2.7,11.4-7.3,15c-5,4.3-12.8,6.4-23,6.4c-14,0-24.4-3.6-31.3-10.2c-6.2-6.5-10.2-14.7-11.4-23.5
	l-2.4,0.5l-54.3,11.3c1,7.7,3.3,15.1,6.6,22.1c4.2,8.7,10.1,16.5,17.3,22.8c8.9,7.7,19.1,13.8,30.2,18c12.4,5,27.6,7.4,45.8,7.4
	c13.9,0.3,27.8-1.8,41-6.4c10.8-3.8,20.7-9.6,29.2-17.1c14.6-13.1,23-31.7,23-51.3C884.6,499,878.2,483.4,866.7,471.8z"/>
<path d="M1044.3,489.4c0.2,8.6-1.1,17.1-4.1,25.2c-2.3,6.1-5.8,11.6-10.4,16.2c-4.2,4.2-9.3,7.2-15,8.8c-5.7,1.7-11.6,2.6-17.6,2.6
	c-9.3,0-16.4-2.6-21-8.1c-4.5-5-6.9-11.6-6.9-18.3c0-9,2.6-15.7,7.6-20.2c5.3-4.7,12-7.7,19-8.6l48.4-7.8V492L1044.3,489.4z
	 M1100.8,588.4V435.7c0-11.2-1.7-22.3-5-33c-3.2-10.3-8.7-19.7-16.1-27.6c-8.1-8.4-18-14.9-28.9-19c-13.8-5.1-28.5-7.5-43.2-7.1
	c-13.1-0.3-26,2-38.2,6.7c-10.3,4-19.7,9.9-27.8,17.3c-7.4,6.9-13.5,15.1-17.8,24.2c-2.8,5.6-4.9,11.5-6.4,17.6l51.8,11.2
	c2-6,5.2-11.5,9.5-16.1c6.9-7.4,16.6-11.2,29.5-11.2c12,0,21.4,2.8,27.3,8.8c5.8,5.4,9,13.1,9,21c0.1,3.8-1.2,7.5-3.6,10.4
	c-3.3,3.4-7.8,5.5-12.6,5.7l-52.7,8.2c-8.6,1.5-17.1,4-25.2,7.3c-7.6,3.3-14.4,8.1-20.2,14c-5.8,6-10.5,13-13.8,20.7
	c-3.5,8.6-5.2,17.8-5,27c-0.1,8.8,1.7,17.6,5,25.8c3.3,8.2,8.3,15.6,14.5,21.9c6.7,6.5,14.6,11.7,23.3,15.2
	c9.7,3.9,20.1,5.8,30.6,5.7c37.3,0,57.7-22.6,63.2-31.6v29.5L1100.8,588.4z"/>
<path d="M661.3,405.8c-3.1-10.8-8.3-20.8-15.4-29.5c-7.2-8.5-16.2-15.2-26.4-19.7c-11.9-5.2-24.8-7.7-37.8-7.3
	c-13.1,0.1-25.9,3-37.8,8.6c-7.5,3.4-14.2,8.2-20,14v-17.6h-63.2v234H524V425.5c1.2-1.7,15.5-19.3,36-19.3c15.2,0,26.1,4.5,33,13.3
	c7.1,9.6,10.7,21.3,10.2,33.3v135.4h63.2V441.9C666.4,429.7,664.7,417.5,661.3,405.8z"/>
</svg>
