<?xml version="1.0" encoding="utf-8"?>
<!-- Generator: Adobe Illustrator 25.3.1, SVG Export Plug-In . SVG Version: 6.00 Build 0)  -->
<svg version="1.1" id="Layer_1" xmlns="http://www.w3.org/2000/svg" xmlns:xlink="http://www.w3.org/1999/xlink" x="0px" y="0px"
	 viewBox="0 0 230 90" style="enable-background:new 0 0 230 90;" xml:space="preserve">
<style type="text/css">
	.st0{opacity:0.1;fill-rule:evenodd;clip-rule:evenodd;enable-background:new    ;}
	.st1{fill-rule:evenodd;clip-rule:evenodd;}
</style>
<g>
	<circle class="st0" cx="185" cy="45" r="45"/>
	<path class="st1" d="M14.8,60c6.3,0,10-2.7,12.7-6.5l-6-4.3c-1.7,2.1-3.5,3.5-6.5,3.5c-4,0-6.8-3.4-6.8-7.7v-0.1
		c0-4.2,2.8-7.6,6.8-7.6c2.7,0,4.6,1.4,6.3,3.4l6-4.6c-2.5-3.5-6.3-5.9-12.2-5.9C6.4,30.1,0,36.7,0,45v0.1C0,53.7,6.6,60,14.8,60z
		 M41,59.4h8.3l2-5.2h11.1l2,5.2h8.5L60.9,30.5h-7.7L41,59.4L41,59.4z M53.7,48l3.2-8.1l3.2,8.1H53.7L53.7,48z M88.6,59.4h8v-8.7
		h3.5l5.8,8.7h9.1l-6.8-10c3.6-1.5,5.9-4.4,5.9-8.9v-0.1c0-2.8-0.9-5-2.5-6.7c-1.9-1.9-5-3.1-9.3-3.1H88.6L88.6,59.4L88.6,59.4z
		 M96.5,44.5v-6.9h5.2c2.6,0,4.3,1.2,4.3,3.4v0.1c0,2.1-1.6,3.4-4.3,3.4L96.5,44.5L96.5,44.5z M137.8,59.4V37.7h-8.6v-7h25.1v7h-8.6
		v21.7L137.8,59.4L137.8,59.4z M185,60c-8.3,0-15-6.7-15-15s6.7-15,15-15s15,6.7,15,15S193.3,60,185,60z"/>
</g>
</svg>
