<?xml version="1.0" encoding="UTF-8"?>
<svg width="48px" height="48px" viewBox="0 0 48 48" version="1.1" xmlns="http://www.w3.org/2000/svg" xmlns:xlink="http://www.w3.org/1999/xlink">
    <title>Mountains</title>
    <defs>
        <circle id="path-1" cx="24" cy="24" r="24"></circle>
    </defs>
    <g id="Symbols" stroke="none" stroke-width="1" fill="none" fill-rule="evenodd">
        <g id="Mountains">
            <mask id="mask-2" fill="white">
                <use xlink:href="#path-1"></use>
            </mask>
            <circle stroke="#FFFFFF" stroke-width="2" cx="24" cy="24" r="23"></circle>
            <path d="M15.3513183,17 C16.0835105,17 16.7699124,17.3562991 17.1913261,17.9551086 L17.1913261,17.9551086 L35.8021114,44.4021518 C36.1198075,45.821738 35.5220783,46.4422604 35.2337567,46.6710324 L35.2337567,46.6710324 L-7.23928515,46.9999997 C-7.72510013,47.0003469 -8.16525842,46.8037151 -8.48392428,46.4855391 C-8.88136044,46.088714 -9.08983749,45.5029611 -8.96292132,44.8744828 L-8.96292132,44.8744828 L4.18426824,25.9540004 C4.6058192,25.3557417 5.29200782,24.9998903 6.02371819,25 L6.02371819,25 L6.85569626,25 L11.8087054,17.9558 C12.2300292,17.35662 12.9166518,17 13.6491182,17 L13.6491182,17 Z M31.3809004,22.999968 C32.0831387,22.999968 32.745107,23.3278595 33.1706311,23.8864235 L33.1706311,23.8864235 L48.7773402,44.3701599 C48.9667135,45.1460154 48.8879238,45.668315 48.7430172,46.0191089 C48.4811453,46.6530554 47.9805111,46.9379825 47.4104832,46.9930993 L47.4104832,46.9930993 L38.8240003,46.999968 C38.0754974,46.999968 37.3738112,46.6356848 36.9431041,46.023576 L36.9431041,46.023576 L25.4330235,29.6677617 C25.145919,29.2596653 25.0075959,28.7820741 25.016671,28.3072997 C25.0257462,27.832527 25.1822187,27.3605707 25.4845579,26.9639389 L25.4845579,26.9639389 L27.829075,23.8866477 C28.2546493,23.3279024 28.9167294,22.999968 29.6191004,22.999968 L29.6191004,22.999968 Z" id="Shape" stroke="#FFFFFF" stroke-width="2" mask="url(#mask-2)"></path>
        </g>
    </g>
</svg>