<?xml version="1.0" encoding="UTF-8"?>
<svg width="48px" height="48px" viewBox="0 0 48 48" version="1.1" xmlns="http://www.w3.org/2000/svg" xmlns:xlink="http://www.w3.org/1999/xlink">
    <title>Cow</title>
    <defs>
        <circle id="path-1" cx="24" cy="24" r="24"></circle>
    </defs>
    <g id="Symbols" stroke="none" stroke-width="1" fill="none" fill-rule="evenodd">
        <g id="Cow">
            <mask id="mask-2" fill="white">
                <use xlink:href="#path-1"></use>
            </mask>
            <circle stroke="#FFFFFF" stroke-width="2" cx="24" cy="24" r="23"></circle>
            <path d="M23.3306064,19 L24.89143,27.3615551 C24.9551412,28.1086486 25.3262432,28.7599671 25.8607719,29.2276796 C26.4109303,29.7090682 27.1358018,30 27.9,30 C28.2724907,30 28.6356379,29.930879 28.9736682,29.8046184 C28.9828426,30.2477766 28.9554525,30.6960589 28.8893591,31.145494 C28.6020484,33.0992069 27.620605,34.8215043 26.2072014,36.0505509 C25.047174,37.0592704 23.5966584,37.7361914 22,37.9374411 L22,37.9374411 L22,48 C22,48.825 21.6635767,49.5756369 21.1196068,50.1196068 C20.5756369,50.6635767 19.825,51 19,51 C18.175,51 17.4243631,50.6635767 16.8803932,50.1196068 C16.3364233,49.5756369 16,48.825 16,48 L16,48 L16,38 L1.41421356,38 L-2,41.4142136 L-2,48 C-2,48.825 -2.33642334,49.5756369 -2.88039322,50.1196068 C-3.4243631,50.6635767 -4.175,51 -5,51 C-5.825,51 -6.5756369,50.6635767 -7.11960678,50.1196068 C-7.66357666,49.5756369 -8,48.825 -8,48 L-8,48 L-8,25.1 C-8,23.4254902 -7.31379394,21.8995804 -6.20710678,20.7928932 C-5.10041962,19.6862061 -3.5745098,19 -1.9,19 L-1.9,19 L23.3306064,19 Z" id="Path" stroke="#FFFFFF" stroke-width="2" mask="url(#mask-2)"></path>
            <path d="M25,10 C25.6,10 26.0864258,10.2222123 26.4321068,10.5678932 C26.7777877,10.9135742 27,11.4 27,12 L27,12 L27,13 L30,13 L30,12 C30,11.4 30.2222123,10.9135742 30.5678932,10.5678932 C30.9135742,10.2222123 31.4,10 32,10 C32.6,10 33.0864258,10.2222123 33.4321068,10.5678932 C33.7777877,10.9135742 34,11.4 34,12 L34,12 L34,14 L37.9312709,14 C38.0996354,15.1623878 37.9667963,16.6990895 37.4425932,17.6819704 C37.2284622,18.0834659 36.9504452,18.4047311 36.6211374,18.6285623 C36.2226099,18.8994423 35.7457756,19.0399755 35.1761012,18.9900422 L35.1761012,18.9900422 L33.7545976,18.397749 L32.0897927,27.2475016 C32.0037769,27.973119 31.6195409,28.6362154 31.0569386,29.118446 C30.4863943,29.607484 29.7409719,29.9 29,29.9 L29,29.9 L27.9,29.9 C27.1562534,29.9 26.4125665,29.6313465 25.8469237,29.1734453 C25.2807233,28.7150925 24.8942055,28.0761043 24.8092669,27.3394883 L24.8092669,27.3394883 L23.5152164,19.8737853 L23.27,18.483 L22.236068,19 L21.2107614,19 C20.4769692,18.8889802 19.8433066,18.3544553 19.4541253,17.4563447 C19.0263954,16.4692756 18.8994258,15.0481404 19.0791199,14 L19.0791199,14 L23,14 L23,12 C23,11.4 23.2222123,10.9135742 23.5678932,10.5678932 C23.9135742,10.2222123 24.4,10 25,10 Z" id="Path" stroke="#FFFFFF" stroke-width="2" mask="url(#mask-2)"></path>
        </g>
    </g>
</svg>