<?xml version="1.0" encoding="utf-8"?>
<!-- Generator: Adobe Illustrator 25.3.1, SVG Export Plug-In . SVG Version: 6.00 Build 0)  -->
<svg version="1.1" id="Layer_1" xmlns="http://www.w3.org/2000/svg" xmlns:xlink="http://www.w3.org/1999/xlink" x="0px" y="0px"
	 viewBox="0 0 34 34" style="enable-background:new 0 0 34 34;" xml:space="preserve">
<style type="text/css">
	.st0{fill:url(#SVGID_1_);}
	.st1{fill:url(#SVGID_2_);}
	.st2{fill:url(#SVGID_3_);}
	.st3{fill:url(#SVGID_4_);}
	.st4{fill:url(#SVGID_5_);}
	.st5{fill:url(#SVGID_6_);}
	.st6{fill:url(#SVGID_7_);}
	.st7{fill:url(#SVGID_8_);}
	.st8{fill:url(#SVGID_9_);}
</style>
<g id="Symbols">
	<g id="element_x2F_icon_x2F_48_x2F_1-copy-7" transform="translate(-11.000000, -11.000000)">
		<g id="sun" transform="translate(12.000000, 12.000000)">
			<g id="Oval">
				
					<linearGradient id="SVGID_1_" gradientUnits="userSpaceOnUse" x1="-261.0605" y1="408.8043" x2="-261.4395" y2="408.4253" gradientTransform="matrix(14.5455 0 0 -14.5455 3816 5959.4888)">
					<stop  offset="0" style="stop-color:#AEDB5A"/>
					<stop  offset="0.5126" style="stop-color:#00A960"/>
					<stop  offset="1" style="stop-color:#31825F"/>
				</linearGradient>
				<path class="st0" d="M16,24.3c-4.6,0-8.3-3.7-8.3-8.3s3.7-8.3,8.3-8.3s8.3,3.7,8.3,8.3S20.6,24.3,16,24.3z M16,9.7
					c-3.5,0-6.3,2.8-6.3,6.3s2.8,6.3,6.3,6.3s6.3-2.8,6.3-6.3S19.5,9.7,16,9.7z"/>
			</g>
			<g id="Path">
				
					<linearGradient id="SVGID_2_" gradientUnits="userSpaceOnUse" x1="-0.9067" y1="297.8881" x2="-1.0578" y2="297.2838" gradientTransform="matrix(1 0 0 -2.9091 17 866.9523)">
					<stop  offset="0" style="stop-color:#AEDB5A"/>
					<stop  offset="0.5126" style="stop-color:#00A960"/>
					<stop  offset="1" style="stop-color:#31825F"/>
				</linearGradient>
				<path class="st1" d="M16,3.9c-0.6,0-1-0.4-1-1V0c0-0.6,0.4-1,1-1s1,0.4,1,1v2.9C17,3.5,16.6,3.9,16,3.9z"/>
			</g>
			<g id="Path_1_">
				
					<linearGradient id="SVGID_3_" gradientUnits="userSpaceOnUse" x1="-0.9067" y1="297.888" x2="-1.0578" y2="297.2837" gradientTransform="matrix(1 0 0 -2.9091 17 896.0428)">
					<stop  offset="0" style="stop-color:#AEDB5A"/>
					<stop  offset="0.5126" style="stop-color:#00A960"/>
					<stop  offset="1" style="stop-color:#31825F"/>
				</linearGradient>
				<path class="st2" d="M16,33c-0.6,0-1-0.4-1-1v-2.9c0-0.6,0.4-1,1-1s1,0.4,1,1V32C17,32.6,16.6,33,16,33z"/>
			</g>
			<g id="Path_2_">
				
					<linearGradient id="SVGID_4_" gradientUnits="userSpaceOnUse" x1="-144.6946" y1="241.0333" x2="-145.1787" y2="240.5492" gradientTransform="matrix(2.0655 0 0 -2.0655 305.0765 503.0599)">
					<stop  offset="0" style="stop-color:#AEDB5A"/>
					<stop  offset="0.5126" style="stop-color:#00A960"/>
					<stop  offset="1" style="stop-color:#31825F"/>
				</linearGradient>
				<path class="st3" d="M6.7,7.7C6.5,7.7,6.2,7.7,6,7.5L4,5.4C3.6,5,3.6,4.4,4,4s1-0.4,1.4,0L7.5,6c0.4,0.4,0.4,1,0,1.4
					C7.3,7.7,7,7.7,6.7,7.7z"/>
			</g>
			<g id="Path_3_">
				
					<linearGradient id="SVGID_5_" gradientUnits="userSpaceOnUse" x1="-144.6945" y1="241.0332" x2="-145.1786" y2="240.5491" gradientTransform="matrix(2.0655 0 0 -2.0655 325.6436 523.627)">
					<stop  offset="0" style="stop-color:#AEDB5A"/>
					<stop  offset="0.5126" style="stop-color:#00A960"/>
					<stop  offset="1" style="stop-color:#31825F"/>
				</linearGradient>
				<path class="st4" d="M27.3,28.3c-0.3,0-0.5-0.1-0.7-0.3L24.5,26c-0.4-0.4-0.4-1,0-1.4s1-0.4,1.4,0l2.1,2.1c0.4,0.4,0.4,1,0,1.4
					C27.8,28.2,27.6,28.3,27.3,28.3z"/>
			</g>
			<g id="Path_4_">
				
					<linearGradient id="SVGID_6_" gradientUnits="userSpaceOnUse" x1="-184.0189" y1="32.9474" x2="-184.6232" y2="32.7963" gradientTransform="matrix(2.9091 0 0 -1 537.4546 48.8898)">
					<stop  offset="0" style="stop-color:#AEDB5A"/>
					<stop  offset="0.5126" style="stop-color:#00A960"/>
					<stop  offset="1" style="stop-color:#31825F"/>
				</linearGradient>
				<path class="st5" d="M2.9,17H0c-0.6,0-1-0.4-1-1s0.4-1,1-1h2.9c0.6,0,1,0.4,1,1S3.5,17,2.9,17z"/>
			</g>
			<g id="Path_5_">
				
					<linearGradient id="SVGID_7_" gradientUnits="userSpaceOnUse" x1="-184.0189" y1="32.9474" x2="-184.6233" y2="32.7963" gradientTransform="matrix(2.9091 0 0 -1 566.5452 48.8898)">
					<stop  offset="0" style="stop-color:#AEDB5A"/>
					<stop  offset="0.5126" style="stop-color:#00A960"/>
					<stop  offset="1" style="stop-color:#31825F"/>
				</linearGradient>
				<path class="st6" d="M32,17h-2.9c-0.6,0-1-0.4-1-1s0.4-1,1-1H32c0.6,0,1,0.4,1,1S32.6,17,32,17z"/>
			</g>
			<g id="Path_6_">
				
					<linearGradient id="SVGID_8_" gradientUnits="userSpaceOnUse" x1="-144.5878" y1="241.14" x2="-145.2856" y2="240.4422" gradientTransform="matrix(2.0655 0 0 -2.0655 305.0765 523.627)">
					<stop  offset="0" style="stop-color:#AEDB5A"/>
					<stop  offset="0.5126" style="stop-color:#00A960"/>
					<stop  offset="1" style="stop-color:#31825F"/>
				</linearGradient>
				<path class="st7" d="M4.7,28.3c-0.3,0-0.5-0.1-0.7-0.3c-0.4-0.4-0.4-1,0-1.4L6,24.5c0.4-0.4,1-0.4,1.4,0s0.4,1,0,1.4L5.4,28
					C5.2,28.2,4.9,28.3,4.7,28.3z"/>
			</g>
			<g id="Path_7_">
				
					<linearGradient id="SVGID_9_" gradientUnits="userSpaceOnUse" x1="-144.5877" y1="241.1401" x2="-145.2855" y2="240.4423" gradientTransform="matrix(2.0655 0 0 -2.0655 325.6436 503.0599)">
					<stop  offset="0" style="stop-color:#AEDB5A"/>
					<stop  offset="0.5126" style="stop-color:#00A960"/>
					<stop  offset="1" style="stop-color:#31825F"/>
				</linearGradient>
				<path class="st8" d="M25.3,7.7c-0.3,0-0.5-0.1-0.7-0.3c-0.4-0.4-0.4-1,0-1.4L26.6,4c0.4-0.4,1-0.4,1.4,0s0.4,1,0,1.4L26,7.5
					C25.8,7.7,25.5,7.7,25.3,7.7z"/>
			</g>
		</g>
	</g>
</g>
</svg>
