<?xml version="1.0" encoding="UTF-8"?>
<svg width="25px" height="34px" viewBox="0 0 25 34" version="1.1" xmlns="http://www.w3.org/2000/svg" xmlns:xlink="http://www.w3.org/1999/xlink">
    <title>water-outline</title>
    <defs>
        <linearGradient x1="75.0868056%" y1="0%" x2="24.9131944%" y2="100%" id="linearGradient-1">
            <stop stop-color="#AEDB5A" offset="0%"></stop>
            <stop stop-color="#00A960" offset="51.2583893%"></stop>
            <stop stop-color="#31825F" offset="100%"></stop>
        </linearGradient>
        <linearGradient x1="100%" y1="0.363691917%" x2="0%" y2="99.6363081%" id="linearGradient-2">
            <stop stop-color="#AEDB5A" offset="0%"></stop>
            <stop stop-color="#00A960" offset="51.2583893%"></stop>
            <stop stop-color="#31825F" offset="100%"></stop>
        </linearGradient>
    </defs>
    <g id="Symbols" stroke="none" stroke-width="1" fill="none" fill-rule="evenodd" stroke-linecap="round" stroke-linejoin="round">
        <g id="element/icon/48/1-copy-9" transform="translate(-15.000000, -11.000000)" stroke-width="2">
            <g id="water-outline" transform="translate(16.000000, 12.000000)">
                <path d="M22.6666667,20.7079603 C22.6666667,27.6376655 18.2883796,32 11.3333333,32 C4.37828704,32 0,27.6376655 0,20.7079603 C0,13.2716817 8.12458333,3.23274472 10.6163426,0.328965352 C10.7957728,0.120180684 11.0578543,0 11.3337269,0 C11.6095994,0 11.8716809,0.120180684 12.0511111,0.328965352 C14.5420833,3.23274472 22.6666667,13.2716817 22.6666667,20.7079603 Z" id="Path" stroke="url(#linearGradient-1)"></path>
                <path d="M18.2592593,21.3352959 C18.2592593,24.4535065 15.7222062,26.9813157 12.5925926,26.9813157" id="Path" stroke="url(#linearGradient-2)"></path>
            </g>
        </g>
    </g>
</svg>